<?xml version="1.0" standalone="yes"?>
<svg width="50mm" height="50mm" viewBox="0 0 10 12" xmlns="http://www.w3.org/2000/svg">
  <rect width="10" height="12" fill="white"/>
  <rect width="1" height="1" x="1" y="1" fill="black"/>
  <rect width="1" height="1" x="2" y="1" fill="black"/>
  <rect width="1" height="1" x="3" y="1" fill="black"/>
  <rect width="1" height="1" x="4" y="1" fill="black"/>
  <rect width="1" height="1" x="5" y="1" fill="black"/>
  <rect width="1" height="1" x="6" y="1" fill="black"/>
  <rect width="1" height="1" x="7" y="1" fill="black"/>
  <rect width="1" height="1" x="8" y="1" fill="black"/>
  <rect width="1" height="1" x="1" y="2" fill="black"/>
  <rect width="1" height="1" x="3" y="2" fill="black"/>
  <rect width="1" height="1" x="4" y="2" fill="black"/>
  <rect width="1" height="1" x="6" y="2" fill="black"/>
  <rect width="1" height="1" x="7" y="2" fill="black"/>
  <rect width="1" height="1" x="8" y="2" fill="black"/>
  <rect width="1" height="1" x="1" y="3" fill="black"/>
  <rect width="1" height="1" x="3" y="3" fill="black"/>
  <rect width="1" height="1" x="6" y="3" fill="black"/>
  <rect width="1" height="1" x="8" y="3" fill="black"/>
  <rect width="1" height="1" x="1" y="4" fill="black"/>
  <rect width="1" height="1" x="2" y="4" fill="black"/>
  <rect width="1" height="1" x="3" y="4" fill="black"/>
  <rect width="1" height="1" x="4" y="4" fill="black"/>
  <rect width="1" height="1" x="7" y="4" fill="black"/>
  <rect width="1" height="1" x="8" y="4" fill="black"/>
  <rect width="1" height="1" x="1" y="5" fill="black"/>
  <rect width="1" height="1" x="2" y="5" fill="black"/>
  <rect width="1" height="1" x="3" y="5" fill="black"/>
  <rect width="1" height="1" x="8" y="5" fill="black"/>
  <rect width="1" height="1" x="1" y="6" fill="black"/>
  <rect width="1" height="1" x="5" y="6" fill="black"/>
  <rect width="1" height="1" x="7" y="6" fill="black"/>
  <rect width="1" height="1" x="8" y="6" fill="black"/>
  <rect width="1" height="1" x="1" y="7" fill="black"/>
  <rect width="1" height="1" x="2" y="7" fill="black"/>
  <rect width="1" height="1" x="5" y="7" fill="black"/>
  <rect width="1" height="1" x="8" y="7" fill="black"/>
  <rect width="1" height="1" x="1" y="8" fill="black"/>
  <rect width="1" height="1" x="2" y="8" fill="black"/>
  <rect width="1" height="1" x="3" y="8" fill="black"/>
  <rect width="1" height="1" x="4" y="8" fill="black"/>
  <rect width="1" height="1" x="5" y="8" fill="black"/>
  <rect width="1" height="1" x="6" y="8" fill="black"/>
  <rect width="1" height="1" x="7" y="8" fill="black"/>
  <rect width="1" height="1" x="8" y="8" fill="black"/>
  <text x="5.0" y="11.5" font-family="Arial" font-size="1.5" font-weight="bold" text-anchor="middle" fill="black">ID: 1</text>
</svg>
